# AST/ASF file generated using VICON BodyLanguage
# -----------------------------------------------
:version 1.10
:name VICON
:units
  mass 1.0
  length 0.45
  angle deg
:documentation
   .ast/.asf automatically generated from VICON data using
   VICON BodyBuilder and BodyLanguage model FoxedUp or BRILLIANT.MOD
:root
   order TX TY TZ RX RY RZ
   axis XYZ
   position 0 0 0  
   orientation 0 0 0 
:bonedata
  begin
     id 1 
     name lhipjoint
     direction 0.661853 -0.702389 0.261917 
     length 2.64193 
     axis 0 0 0  XYZ
  end
  begin
     id 2 
     name lfemur
     direction 0.34202 -0.939693 0  
     length 7.01722  
     axis 0 0 20  XYZ
    dof rx ry rz
    limits (-160.0 20.0)
           (-70.0 70.0)
           (-60.0 70.0)
  end
  begin
     id 3 
     name ltibia
     direction 0.34202 -0.939693 0   
     length 8.25008   
     axis 0 0 20   XYZ
    dof rx
    limits (-10.0 170.0)
  end
  begin
     id 4 
     name lfoot
     direction 0.0709916 -0.195048 0.978221   
     length 2.31941   
     axis -90 7.62852e-016 20   XYZ
    dof rx rz
    limits (-45.0 90.0)
           (-70.0 20.0)
  end
  begin
     id 5 
     name ltoes
     direction 1.53586e-011 -4.22017e-011 1   
     length 1.16486   
     axis -90 7.62852e-016 20   XYZ
    dof rx
    limits (-90.0 20.0)
  end
  begin
     id 6 
     name rhipjoint
     direction -0.638185 -0.721362 0.268992   
     length 2.57244  
     axis 0 0 0  XYZ 
  end
  begin
     id 7 
     name rfemur
     direction -0.34202 -0.939693 0   
     length 7.07017   
     axis 0 0 -20   XYZ
    dof rx ry rz
    limits (-160.0 20.0)
           (-70.0 70.0)
           (-70.0 60.0)
  end
  begin
     id 8 
     name rtibia
     direction -0.34202 -0.939693 0   
     length 8.20386   
     axis 0 0 -20   XYZ
    dof rx
    limits (-10.0 170.0)
 end
 begin
     id 9 
     name rfoot
     direction -0.0822429 -0.225961 0.970658   
     length 2.32215  
     axis -90 -7.62852e-016 -20   XYZ
    dof rx rz
    limits (-45.0 90.0)
           (-20.0 70.0)
  end
  begin
     id 10 
     name rtoes
     direction -1.53597e-011 -4.21689e-011 1   
     length 1.16333   
     axis -90 -7.62852e-016 -20   XYZ
    dof rx
    limits (-90.0 20.0)
  end
  begin
     id 11 
     name lowerback
     direction -0.0131557 0.998589 -0.0514484   
     length 2.14993   
     axis 0 0 0   XYZ
    dof rx ry rz
    limits (-20.0 45.0)
           (-30.0 30.0)
           (-30.0 30.0)
  end
  begin
     id 12 
     name upperback
     direction -0.000776481 0.999993 0.00352685   
     length 2.15301   
     axis 0 0 0   XYZ
    dof rx ry rz
    limits (-20.0 45.0)
           (-30.0 30.0)
           (-30.0 30.0)
  end
  begin
     id 13 
     name thorax
     direction 0.00438186 0.999609 0.0276143   
     length 2.15424   
     axis 0 0 0   XYZ
    dof rx ry rz
    limits (-20.0 45.0)
           (-30.0 30.0)
           (-30.0 30.0)
  end
  begin
     id 14 
     name lowerneck
     direction -0.0488006 0.998094 0.0377807   
     length 1.90481   
     axis 0 0 0   XYZ
    dof rx ry rz
    limits (-20.0 45.0)
           (-30.0 30.0)
           (-30.0 30.0)
  end
  begin
     id 15 
     name upperneck
     direction 0.0443769 0.990702 -0.12861   
     length 1.91305   
     axis 0 0 0   XYZ
    dof rx ry rz
    limits (-20.0 45.0)
           (-30.0 30.0)
           (-30.0 30.0)
  end
  begin
     id 16
     name head
     direction 0.0165599 0.998647 -0.0492982  
     length 1.92369  
     axis 0 0 0   XYZ
    dof rx ry rz
    limits (-20.0 45.0)
           (-30.0 30.0)
           (-30.0 30.0)
  end
  begin
     id 17 
     name lclavicle
     direction 0.911936 0.410197 -0.0105506  
     length 3.52622  
     axis 0 0 0   XYZ
    dof ry rz
    limits (-20.0 10.0)
           (0.0 20.0)
  end
  begin
     id 18 
     name lhumerus
     direction 1 -4.48974e-011 -2.48591e-028   
     length 5.47651   
     axis 180 -30 -90   XYZ
    dof rx ry rz
    limits (-60.0 90.0)
           (-90.0 90.0)
           (-90.0 90.0)
  end
  begin
     id 19
     name lradius
     direction 1 -4.48938e-011 -4.40099e-027   
     length 3.09058   
     axis 180 -30 -90   XYZ
    dof rx
    limits (-10.0 170.0)
  end
  begin
     id 20
     name lwrist
     direction 1 -4.49042e-011 -2.99852e-027   
     length 1.54529   
     axis 1.95339e-015 90 90   XYZ
    dof ry
    limits (-180.0 0.0)
 end
  begin
     id 21 
     name lhand
     direction 1 -4.48815e-011 -5.98193e-027   
     length 0.771611   
     axis 3.82337e-015 90 90   XYZ
    dof rx rz
    limits (-90.0 90.0)
           (-45.0 45.0)
  end
  begin
     id 22 
     name lfingers
     direction 1 -4.49034e-011 -1.1993e-026   
     length 0.622093   
     axis 7.64668e-015 90 90   XYZ
    dof rx
    limits (0.0 90.0)
  end
  begin
     id 23
     name lthumb
     direction 0.707107 -6.34867e-011 0.707107   
     length 0.893204   
     axis -90 45 -1.62303e-014   XYZ
    dof rx rz
    limits (-45.0 45.0)
           (-45.0 45.0)
  end
  begin
     id 24 
     name rclavicle
     direction -0.93442 0.355634 -0.0195692   
     length 3.62463  
     axis 0 0 0   XYZ 
    dof ry rz
    limits (-10.0 20.0)
           (-20.0 0.0)
  end
  begin
     id 25 
     name rhumerus
     direction -1 -4.48957e-011 -1.19147e-027  
     length 5.14182   
     axis 180 30 90   XYZ
    dof rx ry rz
    limits (-90.0 60.0)
           (-90.0 90.0)
           (-90.0 90.0)
  end
  begin
     id 26 
     name rradius
     direction -1 -4.48952e-011 -3.81062e-027   
     length 3.35565   
     axis 180 30 90   XYZ
    dof rx
    limits (-10.0 170.0)
  end
  begin
     id 27 
     name rwrist
     direction -1 -4.48973e-011 -2.99621e-027   
     length 1.67782   
     axis 1.95339e-015 -90 -90   XYZ
    dof ry
    limits (-180.0 0.0)
  end
  begin
     id 28
     name rhand
     direction -1 -4.48895e-011 -5.98727e-027   
     length 0.801042   
     axis 3.82337e-015 -90 -90   XYZ
    dof rx rz
    limits (-90.0 90.0)
           (-45.0 45.0)
  end
  begin
     id 29
     name rfingers
     direction -1 -4.49065e-011 -1.19972e-026   
     length 0.645821   
     axis 7.64668e-015 -90 -90   XYZ
    dof rx
    limits (0.0 90.0)
  end
  begin
     id 30
     name rthumb
     direction -0.707107 -6.34957e-011 0.707107   
     length 0.927273   
     axis -90 -45 1.62303e-014   XYZ
    dof rx rz
    limits (-45.0 45.0)
           (-45.0 45.0)
  end
:hierarchy
  begin
    root lhipjoint rhipjoint lowerback
    lhipjoint lfemur
    lfemur ltibia
    ltibia lfoot
    lfoot ltoes
    rhipjoint rfemur
    rfemur rtibia
    rtibia rfoot
    rfoot rtoes
    lowerback upperback
    upperback thorax
    thorax lowerneck lclavicle rclavicle
    lowerneck upperneck
    upperneck head
    lclavicle lhumerus
    lhumerus lradius
    lradius lwrist
    lwrist lhand lthumb
    lhand lfingers
    rclavicle rhumerus
    rhumerus rradius
    rradius rwrist
    rwrist rhand rthumb
    rhand rfingers
  end

#!OML:ASF E:\Style4\Style4.ASF
:FULLY-SPECIFIED
:DEGREES
834
root -0.185923 16.9912 -3.17358 4.77611 1.36428 3.40253
lowerback 18.7371 1.79943 -1.0997
upperback 12.5193 2.19753 0.991634
thorax 2.92619 1.00857 1.32494
lowerneck 3.05239 -4.90874 -5.67468
upperneck 3.41703 -6.70804 2.96456
head 0.859446 -3.39149 1.88373
rclavicle -6.36111e-015 4.77083e-015
rhumerus 4.75821 3.60302 -75.74
rradius 33.2174
rwrist -42.4423
rhand -33.5141 9.24467
rfingers 7.12502
rthumb -6.71053 -20.629
lclavicle -6.36111e-015 4.77083e-015
lhumerus 2.26147 -20.9607 78.5865
lradius 42.7603
lwrist 53.9436
lhand -26.6522 44.2549
lfingers 7.12502
lthumb -0.084186 74.2346
rfemur -35.2821 -2.74022 17.2986
rtibia 51.6103
rfoot -20.2467 -12.0124
rtoes -7.331
lfemur -33.5866 0.130429 -21.9129
ltibia 48.4053
lfoot -19.1971 6.21871
ltoes -14.2718
835
root -0.187164 17.0268 -3.17468 4.99799 1.34547 3.40266
lowerback 18.7336 1.84787 -0.848435
upperback 12.5259 2.29612 0.826208
thorax 2.94748 1.08027 0.993368
lowerneck 2.41812 -5.04402 -5.42779
upperneck 3.76388 -6.85542 3.02715
head 1.07695 -3.45984 1.83713
rclavicle 2.78299e-014 -5.56597e-015
rhumerus 4.26243 5.89506 -75.173
rradius 34.6312
rwrist -43.0052
rhand -33.7832 8.40978
rfingers 7.12502
rthumb -6.97029 -21.4555
lclavicle 2.78299e-014 -5.56597e-015
lhumerus 2.36537 -22.6067 77.7828
lradius 43.116
lwrist 54.43
lhand -26.6641 44.73
lfingers 7.12502
lthumb -0.0956224 74.7097
rfemur -35.1662 -2.66928 17.2969
rtibia 50.9716
rfoot -19.9669 -12.0267
rtoes -7.34985
lfemur -33.4477 0.10273 -21.899
ltibia 47.7091
lfoot -18.8743 6.36164
ltoes -14.4188
836
root -0.187201 17.0736 -3.17275 5.20395 1.4673 3.33339
lowerback 18.4874 1.73094 -1.08461
upperback 12.2553 2.11407 0.945001
thorax 2.76566 0.971674 1.28119
lowerneck 3.34665 -4.88456 -5.41681
upperneck 3.62091 -6.68122 2.83674
head 0.85762 -3.37802 1.803
rclavicle -1.27222e-014 -7.95139e-016
rhumerus 3.21773 9.1424 -74.5004
rradius 36.0964
rwrist -43.6
rhand -32.7091 7.27531
rfingers 7.12502
rthumb -5.93339 -22.6216
lclavicle -1.27222e-014 -7.95139e-016
lhumerus 1.27277 -23.7335 77.4551
lradius 43.8319
lwrist 54.7602
lhand -26.1588 45.3188
lfingers 7.12502
lthumb 0.392323 75.2981
rfemur -34.9379 -2.75658 17.3839
rtibia 50.2761
rfoot -19.6896 -12.1148
rtoes -8.05661
lfemur -33.2464 -0.0773023 -21.7998
ltibia 46.9705
lfoot -18.5882 6.49746
ltoes -14.7063
837
root -0.188019 17.1158 -3.16928 5.40542 1.46065 3.31168
lowerback 18.2634 1.70453 -1.19903
upperback 12.1341 2.06615 0.974724
thorax 2.7427 0.940152 1.38772
lowerneck 3.76658 -4.83829 -5.34389
upperneck 3.522 -6.6335 2.6864
head 0.744745 -3.35513 1.75526
rclavicle -2.06736e-014 1.03368e-014
rhumerus 2.35354 11.8949 -73.848
rradius 37.5547
rwrist -44.0348
rhand -30.6398 6.59935
rfingers 7.12502
rthumb -3.93532 -23.3441
lclavicle -2.06736e-014 1.03368e-014
lhumerus 0.569023 -25.4401 76.7922
lradius 44.6245
lwrist 54.7645
lhand -24.3971 44.7227
lfingers 7.12502
lthumb 2.09383 74.6922
rfemur -34.7271 -2.65665 17.4081
rtibia 49.5682
rfoot -19.3254 -12.424
rtoes -9.48853
lfemur -33.0256 -0.186142 -21.7508
ltibia 46.2008
lfoot -18.2911 6.56624
ltoes -14.2596
838
root -0.190071 17.1559 -3.16791 5.58415 1.28132 3.26188
lowerback 18.1179 1.72042 -1.24334
upperback 12.0816 2.08068 0.958339
thorax 2.75778 0.944826 1.39571
lowerneck 3.86532 -4.78235 -5.37507
upperneck 3.51578 -6.56392 2.63968
head 0.722473 -3.32136 1.74879
rclavicle -3.65764e-014 4.77083e-015
rhumerus 1.7116 14.59 -73.0897
rradius 39.0256
rwrist -44.6017
rhand -27.8488 6.32958
rfingers 7.12502
rthumb -1.23987 -23.6466
lclavicle -3.65764e-014 4.77083e-015
lhumerus 0.0034893 -27.2506 75.9278
lradius 45.6227
lwrist 54.6301
lhand -21.664 43.2822
lfingers 7.12502
lthumb 4.73326 73.2094
rfemur -34.5153 -2.43703 17.4536
rtibia 48.852
rfoot -19.0436 -12.3873
rtoes -9.32946
lfemur -32.7553 -0.141114 -21.6756
ltibia 45.4107
lfoot -18.0114 6.74921
ltoes -14.6139
